# File created by Blade
# Date/Time:  Wed Jan 21 14:28:11 2015
# Frame Rate: 120.000 fps
#------------------------------------------------------
:FULLY-SPECIFIED
:DEGREES
492
root 18.896555 35.451981 -21.137807 -173.895230 -2.854679 -178.377211
Spine -17.784292 -2.345831 1.840711
Head 10.569312 -0.524638 0.655194
LeftShoulder -6.535269 -32.902097 9.671788
LeftArm 5.057667 21.843957 -20.378304
LeftForeArm 18.613400 -0.000000 0.569119
LeftHand -4.468407 -0.000000 -5.180737
LeftHandThumb1 -26.253704 0.000000 33.147579
RightShoulder -8.701043 -5.628787 -2.713254
RightArm 16.977387 15.928360 21.458509
RightForeArm -38.476696 -0.000000 6.006699
RightHand -0.546029 0.000000 12.663035
RightHandThumb1 -24.326973 -0.000000 -32.862282
LeftUpLeg 1.698981 8.553312 3.009410
LeftLeg -6.294985 -0.000000 0.000000
LeftFoot -20.139508 27.617703 -10.994181
LeftToeBase 27.915656 -0.000000 -0.000000
RightUpLeg 0.167431 -12.459936 0.068157
RightLeg -2.922226 -0.000000 0.000000
RightFoot -20.419791 -22.162328 15.871384
RightToeBase 25.498831 -0.000000 -0.000000
493
root 18.896331 35.453809 -21.140516 -173.830200 -2.853549 -178.377892
Spine -17.800477 -2.332177 1.819495
Head 10.502019 -0.545088 0.711985
LeftShoulder -6.545378 -33.073853 10.111554
LeftArm 5.299062 21.633693 -19.468102
LeftForeArm 18.716158 -0.000000 0.601015
LeftHand -4.531185 -0.000000 -5.051588
LeftHandThumb1 -26.253704 0.000000 33.147579
RightShoulder -8.760910 -5.499203 -3.085203
RightArm 16.860870 16.575315 20.736699
RightForeArm -38.863848 -0.000000 5.845177
RightHand -0.548272 -0.000000 12.837302
RightHandThumb1 -24.326973 -0.000000 -32.862282
LeftUpLeg 1.653766 8.502497 2.999189
LeftLeg -6.324426 -0.000000 0.000000
LeftFoot -20.132321 27.663270 -11.046976
LeftToeBase 27.906882 -0.000000 -0.000000
RightUpLeg 0.125896 -12.460354 0.080862
RightLeg -2.959063 -0.000000 0.000000
RightFoot -20.410139 -22.194479 15.838159
RightToeBase 25.577613 -0.000000 -0.000000
494
root 18.894063 35.454718 -21.141444 -173.792111 -2.840099 -178.370053
Spine -17.761261 -2.336714 1.828804
Head 10.378836 -0.566736 0.736160
LeftShoulder -6.626092 -33.258293 10.578694
LeftArm 5.522832 21.408016 -18.612559
LeftForeArm 18.852997 0.000000 0.620511
LeftHand -4.709929 -0.000000 -4.811937
LeftHandThumb1 -26.253704 0.000000 33.147579
RightShoulder -8.794048 -5.301620 -3.465633
RightArm 16.637569 16.820671 19.903300
RightForeArm -38.853182 -0.000000 5.842293
RightHand -0.543167 -0.000000 12.993778
RightHandThumb1 -24.326973 -0.000000 -32.862282
LeftUpLeg 1.632809 8.497319 2.996728
LeftLeg -6.351362 -0.000000 0.000000
LeftFoot -20.115477 27.689311 -11.051554
LeftToeBase 27.864580 -0.000000 -0.000000
RightUpLeg 0.100471 -12.438913 0.090477
RightLeg -2.987484 -0.000000 0.000000
RightFoot -20.382341 -22.200164 15.857737
RightToeBase 25.552579 -0.000000 -0.000000
495
root 18.892681 35.457011 -21.143456 -173.711872 -2.826523 -178.381889
Spine -17.795414 -2.339510 1.815537
Head 10.291556 -0.616549 0.725062
LeftShoulder -6.654295 -33.430227 10.994005
LeftArm 5.686132 21.143633 -17.716655
LeftForeArm 19.011646 0.000000 0.652219
LeftHand -4.786145 0.000000 -4.738138
LeftHandThumb1 -26.253704 0.000000 33.147579
RightShoulder -8.822285 -5.138162 -3.845756
RightArm 16.447848 17.266027 19.161917
RightForeArm -39.043221 -0.000000 5.738672
RightHand -0.854545 -0.000000 13.232320
RightHandThumb1 -24.326973 -0.000000 -32.862282
LeftUpLeg 1.571918 8.492514 2.970022
LeftLeg -6.378810 -0.000000 0.000000
LeftFoot -20.107121 27.696273 -11.124805
LeftToeBase 27.825991 -0.000000 -0.000000
RightUpLeg 0.042777 -12.442352 0.091657
RightLeg -3.034919 -0.000000 0.000000
RightFoot -20.338561 -22.134056 15.976144
RightToeBase 25.416474 -0.000000 -0.000000
496
root 18.891730 35.458273 -21.149028 -173.636589 -2.824766 -178.387900
Spine -17.819064 -2.344187 1.811073
Head 10.181748 -0.645122 0.718809
LeftShoulder -6.736187 -33.541622 11.434394
LeftArm 5.892894 20.872247 -16.873936
LeftForeArm 19.135613 -0.000000 0.705537
LeftHand -5.065387 -0.000000 -4.657967
LeftHandThumb1 -26.253704 0.000000 33.147579
RightShoulder -8.849918 -4.922803 -4.259278
RightArm 16.165147 17.634362 18.445381
RightForeArm -39.286906 -0.000000 5.736125
RightHand -0.961515 -0.000000 13.459939
RightHandThumb1 -24.326973 -0.000000 -32.862282
LeftUpLeg 1.528908 8.469977 2.953856
LeftLeg -6.423184 -0.000000 0.000000
LeftFoot -20.081043 27.712217 -11.160229
LeftToeBase 27.810118 -0.000000 -0.000000
RightUpLeg 0.007959 -12.441747 0.096965
RightLeg -3.096563 -0.000000 0.000000
RightFoot -20.307202 -22.128599 15.975053
RightToeBase 25.458656 -0.000000 -0.000000
497
root 18.891501 35.460128 -21.152204 -173.564852 -2.815966 -178.386480
Spine -17.846757 -2.366830 1.826904
Head 10.145623 -0.626991 0.688875
LeftShoulder -6.768284 -33.645769 11.811674
LeftArm 6.020493 20.581168 -15.983511
LeftForeArm 19.350343 -0.000000 0.730217
LeftHand -5.012506 -0.000000 -4.650265
LeftHandThumb1 -26.253704 0.000000 33.147579
RightShoulder -8.920270 -4.850914 -4.626133
RightArm 16.069835 18.172992 17.775947
RightForeArm -39.544712 -0.000000 5.649752
RightHand -1.168854 -0.000000 13.733334
RightHandThumb1 -24.326973 -0.000000 -32.862282
LeftUpLeg 1.480195 8.466541 2.943461
LeftLeg -6.454423 -0.000000 0.000000
LeftFoot -20.073082 27.716995 -11.214544
LeftToeBase 27.792217 -0.000000 -0.000000
RightUpLeg -0.041346 -12.421730 0.112787
RightLeg -3.134954 -0.000000 0.000000
RightFoot -20.292626 -22.176466 15.947241
RightToeBase 25.583479 -0.000000 -0.000000
498
root 18.889545 35.461773 -21.154045 -173.492568 -2.815008 -178.397597
Spine -17.870259 -2.441759 1.837309
Head 10.100771 -0.594262 0.660632
LeftShoulder -6.855634 -33.725766 12.236247
LeftArm 6.085442 20.339044 -15.138909
LeftForeArm 19.608305 -0.000000 0.841809
LeftHand -5.043990 -0.000000 -4.528630
LeftHandThumb1 -26.253704 0.000000 33.147579
RightShoulder -8.861113 -4.633134 -5.012573
RightArm 15.783820 18.616836 17.081708
RightForeArm -39.738370 -0.000000 5.626401
RightHand -1.320469 -0.000000 14.010451
RightHandThumb1 -24.326973 -0.000000 -32.862282
LeftUpLeg 1.419603 8.464434 2.919083
LeftLeg -6.470902 -0.000000 0.000000
LeftFoot -20.055615 27.713991 -11.249132
LeftToeBase 27.758941 -0.000000 -0.000000
RightUpLeg -0.089423 -12.418090 0.111033
RightLeg -3.176702 -0.000000 0.000000
RightFoot -20.255749 -22.129636 16.129547
RightToeBase 25.232199 -0.000000 -0.000000
499
root 18.888295 35.462131 -21.160066 -173.409808 -2.773660 -178.404724
Spine -17.909560 -2.420550 1.822997
Head 10.002978 -0.588446 0.665575
LeftShoulder -6.900353 -33.869208 12.653831
LeftArm 6.173885 20.237451 -14.314521
LeftForeArm 19.681432 -0.000000 0.858438
LeftHand -4.975677 -0.000000 -4.589018
LeftHandThumb1 -26.253704 0.000000 33.147579
RightShoulder -8.927955 -4.494158 -5.379620
RightArm 15.613846 18.966456 16.407182
RightForeArm -39.702831 0.000000 5.504814
RightHand -1.513670 -0.000000 14.103617
RightHandThumb1 -24.326973 -0.000000 -32.862282
LeftUpLeg 1.379417 8.530825 2.894234
LeftLeg -6.525335 -0.000000 0.000000
LeftFoot -20.028463 27.690943 -11.274090
LeftToeBase 27.715681 -0.000000 -0.000000
RightUpLeg -0.141691 -12.381878 0.114173
RightLeg -3.231515 -0.000000 0.000000
RightFoot -20.227162 -22.127187 16.051091
RightToeBase 25.386829 -0.000000 -0.000000
500
root 18.886304 35.464847 -21.150072 -173.273539 -2.792052 -178.429873
Spine -17.966838 -2.444255 1.795068
Head 9.902906 -0.570207 0.658182
LeftShoulder -6.923924 -34.006596 13.014756
LeftArm 6.308388 20.061269 -13.482254
LeftForeArm 19.810680 -0.000000 0.740172
LeftHand -4.937981 0.000000 -4.427423
LeftHandThumb1 -26.253704 0.000000 33.147579
RightShoulder -9.009669 -4.334814 -5.693996
RightArm 15.445119 19.564261 15.766343
RightForeArm -39.971024 -0.000000 5.421448
RightHand -1.672114 -0.000000 14.316741
RightHandThumb1 -24.326973 -0.000000 -32.862282
LeftUpLeg 1.198699 8.514580 2.843534
LeftLeg -6.477066 -0.000000 0.000000
LeftFoot -20.019551 27.689575 -11.309110
LeftToeBase 27.674281 -0.000000 -0.000000
RightUpLeg -0.292745 -12.359762 0.118951
RightLeg -3.232607 -0.000000 0.000000
RightFoot -20.228456 -22.167960 16.066700
RightToeBase 25.398597 -0.000000 -0.000000
501
root 18.883239 35.466912 -21.161626 -173.239436 -2.828837 -178.432437
Spine -17.961174 -2.506118 1.813672
Head 9.850105 -0.564736 0.610137
LeftShoulder -6.982653 -34.123766 13.396622
LeftArm 6.388174 19.971553 -12.682865
LeftForeArm 19.823315 -0.000000 0.684924
LeftHand -4.992987 0.000000 -4.373676
LeftHandThumb1 -26.253704 0.000000 33.147579
RightShoulder -9.051648 -4.277929 -6.034887
RightArm 15.243862 20.185511 15.134776
RightForeArm -40.218393 0.000000 5.263019
RightHand -1.542479 0.000000 14.341469
RightHandThumb1 -24.326973 -0.000000 -32.862282
LeftUpLeg 1.197355 8.499189 2.837096
LeftLeg -6.515828 -0.000000 0.000000
LeftFoot -20.015659 27.650136 -11.373656
LeftToeBase 27.677759 -0.000000 -0.000000
RightUpLeg -0.259592 -12.419803 0.116987
RightLeg -3.315886 -0.000000 0.000000
RightFoot -20.177328 -22.107381 16.210423
RightToeBase 25.186543 -0.000000 -0.000000
502
root 18.881111 35.469158 -21.165483 -173.152583 -2.797696 -178.440500
Spine -17.996070 -2.512585 1.811319
Head 9.789914 -0.553718 0.571418
LeftShoulder -7.085112 -34.257426 13.793198
LeftArm 6.495591 19.819854 -11.903441
LeftForeArm 19.942620 -0.000000 0.595615
LeftHand -5.096530 -0.000000 -4.287680
LeftHandThumb1 -26.253704 0.000000 33.147579
RightShoulder -9.053784 -4.098996 -6.381286
RightArm 14.949641 20.817585 14.548945
RightForeArm -40.552924 -0.000000 5.303192
RightHand -1.819290 -0.000000 14.530384
RightHandThumb1 -24.326973 -0.000000 -32.862282
LeftUpLeg 1.130891 8.569539 2.808887
LeftLeg -6.539114 -0.000000 0.000000
LeftFoot -20.000903 27.616656 -11.418926
LeftToeBase 27.679392 -0.000000 -0.000000
RightUpLeg -0.328182 -12.389396 0.120108
RightLeg -3.348885 -0.000000 0.000000
RightFoot -20.171631 -22.145277 16.090921
RightToeBase 25.573727 -0.000000 -0.000000
503
root 18.879182 35.471223 -21.166556 -173.067178 -2.804536 -178.457231
Spine -18.022488 -2.561084 1.801638
Head 9.706893 -0.562751 0.547467
LeftShoulder -7.205630 -34.428885 14.216975
LeftArm 6.566809 19.588344 -11.185625
LeftForeArm 20.088934 -0.000000 0.514245
LeftHand -5.185688 -0.000000 -4.331363
LeftHandThumb1 -26.253704 0.000000 33.147579
RightShoulder -9.086166 -3.960180 -6.682622
RightArm 14.756365 21.524932 13.968563
RightForeArm -40.880075 -0.000000 5.213709
RightHand -1.942379 -0.000000 14.674147
RightHandThumb1 -24.326973 -0.000000 -32.862282
LeftUpLeg 1.042860 8.580527 2.774875
LeftLeg -6.534663 -0.000000 0.000000
LeftFoot -19.979353 27.595278 -11.453314
LeftToeBase 27.629356 -0.000000 -0.000000
RightUpLeg -0.391982 -12.380235 0.119329
RightLeg -3.386883 -0.000000 0.000000
RightFoot -20.151367 -22.174361 16.099213
RightToeBase 25.529161 -0.000000 -0.000000
